<svg width="600" height="295" fill="none" xmlns="http://www.w3.org/2000/svg"><path d="M465.825 0l-92.009 44.164h68.455l-5.889 29.443 92.009-44.164h-68.455L465.825 0zm-5.889 176.657l5.889-29.443-92.009 44.164h68.455l-5.889 29.443 92.009-44.164h-68.455zM164.038 0L72.029 44.164h68.454l-5.888 29.443 92.008-44.164h-68.454L164.038 0zm-5.889 176.657l5.889-29.443-92.009 44.164h68.454l-5.888 29.443 92.008-44.164h-68.454zm64.774 88.327h68.454l-5.889 29.443 92.009-44.164h-68.454l5.888-29.443-92.008 44.164zm86.12-161.935l5.888-29.442-92.008 44.164h68.454l-5.889 29.442 92.009-44.164h-68.454zm215.668 161.935h68.454l-5.888 29.443L600 288.328v-59.516l-75.289 36.172zm0-147.213h68.454l-5.888 29.443L600 141.115V81.598l-75.289 36.173zM0 227.129v59.464l75.71-36.33H7.256l5.888-29.443L0 227.129zM0 79.916v59.463l75.71-36.33H7.256l5.888-29.442L0 79.916z" fill="#A60229"/></svg>