<svg width="37" height="27" fill="none" xmlns="http://www.w3.org/2000/svg"><path d="M27.944 16.71a4.669 4.669 0 00-4.664 4.664 4.67 4.67 0 004.664 4.664 4.669 4.669 0 004.664-4.664 4.67 4.67 0 00-4.664-4.664zm0 6.996a2.334 2.334 0 01-2.332-2.332 2.334 2.334 0 012.332-2.332 2.334 2.334 0 012.332 2.332 2.334 2.334 0 01-2.332 2.332zM12.01 16.71a4.669 4.669 0 00-4.664 4.664 4.67 4.67 0 004.664 4.664 4.67 4.67 0 004.663-4.664 4.669 4.669 0 00-4.663-4.664zm0 6.996a2.334 2.334 0 01-2.332-2.332 2.334 2.334 0 012.332-2.332 2.335 2.335 0 012.332 2.332 2.334 2.334 0 01-2.332 2.332zM31.085 3.36a1.167 1.167 0 00-1.042-.641h-6.14V5.05h5.421l3.175 6.315 2.084-1.048-3.498-6.956z" fill="#393D41"/><path d="M24.447 20.247h-8.823v2.332h8.822v-2.332zm-15.935 0H4.47a1.166 1.166 0 100 2.332h4.042a1.166 1.166 0 100-2.332zm28.243-7.128l-2.293-2.954a1.16 1.16 0 00-.92-.45h-8.473V1.551c0-.644-.522-1.166-1.166-1.166H4.47a1.166 1.166 0 100 2.332h18.267v8.162c0 .644.522 1.166 1.166 1.166h9.067l1.698 2.187v6.014h-3.226a1.166 1.166 0 100 2.331h4.392c.644 0 1.166-.521 1.166-1.165v-7.58c0-.258-.086-.51-.245-.714zM8.434 14.34H3.07a1.166 1.166 0 100 2.331h5.364a1.166 1.166 0 100-2.332zm2.682-4.587h-9.95a1.166 1.166 0 100 2.332h9.95a1.166 1.166 0 100-2.332z" fill="#393D41"/><path d="M13.02 5.167H3.07a1.166 1.166 0 100 2.332h9.95a1.166 1.166 0 100-2.332z" fill="#393D41"/></svg>