<svg width="10" height="19" fill="none" xmlns="http://www.w3.org/2000/svg"><path d="M2.784 10.464H.487c-.371 0-.487-.14-.487-.487V7.169c0-.37.14-.487.487-.487h2.297V4.64c0-.928.163-1.81.627-2.621C3.898 1.183 4.594.626 5.476.302A5.162 5.162 0 017.262 0h2.274c.325 0 .464.14.464.464v2.645c0 .325-.14.464-.464.464-.626 0-1.253 0-1.88.023-.626 0-.95.302-.95.952-.024.696 0 1.368 0 2.088h2.69c.372 0 .511.139.511.51v2.808c0 .37-.116.487-.51.487H6.705v7.564c0 .394-.116.533-.533.533h-2.9c-.349 0-.488-.139-.488-.487v-7.587z" fill="#fff"/></svg>