<svg width="19" height="19" fill="none" xmlns="http://www.w3.org/2000/svg"><path d="M18.948 5.586c-.044-1.01-.208-1.704-.442-2.305a4.637 4.637 0 00-1.098-1.685A4.676 4.676 0 0015.726.501C15.121.267 14.431.104 13.421.06 12.405.011 12.082 0 9.502 0 6.923 0 6.6.011 5.587.056 4.576.1 3.882.264 3.281.497a4.636 4.636 0 00-1.685 1.099A4.678 4.678 0 00.501 3.277C.267 3.882.104 4.573.06 5.582.011 6.6 0 6.922 0 9.502s.011 2.902.056 3.916c.044 1.01.208 1.703.441 2.305.242.638.616 1.21 1.099 1.685.475.482 1.05.857 1.681 1.095.605.234 1.296.397 2.305.441C6.596 18.99 6.92 19 9.498 19c2.58 0 2.903-.011 3.916-.056 1.01-.044 1.704-.207 2.305-.441a4.86 4.86 0 002.78-2.78c.234-.605.397-1.296.442-2.305.044-1.014.055-1.336.055-3.916s-.003-2.903-.048-3.916zm-1.71 7.758c-.042.927-.198 1.429-.328 1.763a3.152 3.152 0 01-1.803 1.803c-.334.13-.84.286-1.763.327-1.003.045-1.303.056-3.838.056s-2.84-.011-3.838-.056c-.928-.04-1.43-.197-1.763-.327a2.924 2.924 0 01-1.092-.709 2.954 2.954 0 01-.709-1.09c-.13-.335-.285-.84-.326-1.764-.045-1.002-.056-1.303-.056-3.838s.011-2.84.056-3.838c.04-.927.197-1.429.326-1.763.153-.412.394-.786.713-1.09a2.95 2.95 0 011.091-.71c.334-.13.84-.286 1.763-.326 1.003-.045 1.303-.056 3.838-.056 2.54 0 2.84.011 3.838.056.928.04 1.43.196 1.763.326.412.152.787.394 1.091.71.316.307.557.678.71 1.09.13.334.285.84.326 1.763.045 1.003.056 1.303.056 3.838s-.011 2.832-.056 3.835z" fill="#fff"/><path d="M9.502 4.621a4.882 4.882 0 000 9.762 4.882 4.882 0 000-9.762zm0 8.047a3.167 3.167 0 110-6.333 3.167 3.167 0 010 6.333zm6.214-8.24a1.14 1.14 0 11-2.28 0 1.14 1.14 0 012.28 0z" fill="#fff"/></svg>