<svg width="15" height="19" fill="none" xmlns="http://www.w3.org/2000/svg"><path d="M7.266 0A4.798 4.798 0 002.47 4.796a4.798 4.798 0 004.796 4.796 4.798 4.798 0 004.796-4.796C12.062 2.136 9.902 0 7.266 0zm0 7.17a2.391 2.391 0 01-2.398-2.398 2.391 2.391 0 012.398-2.398 2.391 2.391 0 012.398 2.398A2.391 2.391 0 017.266 7.17z" fill="#fff"/><path d="M14.318 10.328a1.605 1.605 0 00-2.208-.617c-3.253 1.828-6.434 1.828-9.687 0a1.605 1.605 0 00-2.208.617 1.605 1.605 0 00.617 2.208 14.271 14.271 0 003.395 1.4L1.924 16.24a1.594 1.594 0 000 2.28c.641.64 1.662.64 2.28 0l3.062-3.064 3.063 3.063c.641.641 1.662.641 2.28 0 .64-.64.64-1.662 0-2.28l-2.304-2.302a14.27 14.27 0 003.396-1.4c.783-.452 1.068-1.426.617-2.209z" fill="#fff"/></svg>