<svg width="22" height="22" fill="none" xmlns="http://www.w3.org/2000/svg"><path d="M11.25 11.618a4.186 4.186 0 110-8.373 4.186 4.186 0 010 8.373zm0-6.977a2.79 2.79 0 100 5.582 2.79 2.79 0 000-5.582z" fill="#fff"/><path d="M11.25 21.385a10.465 10.465 0 01-8.086-3.83L2.8 17.11l.363-.44a10.466 10.466 0 0116.172 0l.362.44-.362.446a10.466 10.466 0 01-8.086 3.83zm-6.621-4.27a9.071 9.071 0 0013.256 0 9.07 9.07 0 00-13.256 0z" fill="#fff"/><path d="M11.25 21.385a10.465 10.465 0 11-.015-20.93 10.465 10.465 0 01.014 20.93zm0-19.535a9.07 9.07 0 100 18.14 9.07 9.07 0 000-18.14z" fill="#fff"/><path d="M3.7 17.116s7.026 7.849 14.177.781l.921-.781s-5.972-6.196-12.035-2.477l-3.062 2.477zm7.55-6.196a3.488 3.488 0 100-6.977 3.488 3.488 0 000 6.977z" fill="#fff"/></svg>