<svg width="20" height="12" fill="none" xmlns="http://www.w3.org/2000/svg"><path d="M16.123 6.5c-.315-.397-.225-.574 0-.929.004-.004 2.597-3.587 2.864-4.802h.001c.133-.444 0-.769-.642-.769h-2.124c-.54 0-.79.28-.924.592 0 0-1.081 2.589-2.611 4.267-.494.485-.722.64-.992.64-.133 0-.34-.155-.34-.598V.768c0-.53-.15-.768-.598-.768h-3.34c-.34 0-.541.248-.541.478 0 .504.765.62.844 2.037v3.073c0 .674-.122.798-.393.798-.723 0-2.475-2.6-3.514-5.575-.21-.577-.414-.81-.96-.81H.73C.122 0 0 .28 0 .593c0 .552.722 3.297 3.358 6.924 1.757 2.475 4.23 3.817 6.481 3.817 1.353 0 1.518-.298 1.518-.81 0-2.366-.122-2.59.556-2.59.314 0 .855.156 2.118 1.35 1.443 1.416 1.68 2.05 2.488 2.05h2.125c.605 0 .912-.298.736-.886-.404-1.236-3.134-3.779-3.257-3.949z" fill="#fff"/></svg>